Coordinates
version=1
nRows=17
nColumns=24
inDegrees=yes

Units are S.I. units (second, meters, Newtons, ...)
Angles are in degrees.

endheader
time	pelvis_tilt	pelvis_list	pelvis_rotation	pelvis_tx	pelvis_ty	pelvis_tz	hip_flexion_r	hip_adduction_r	hip_rotation_r	knee_angle_r	ankle_angle_r	subtalar_angle_r	mtp_angle_r	hip_flexion_l	hip_adduction_l	hip_rotation_l	knee_angle_l	ankle_angle_l	subtalar_angle_l	mtp_angle_l	lumbar_extension	lumbar_bending	lumbar_rotation
      0.56700000	      5.09721771	      0.85602576	      6.57099982	     -0.76481260	      0.97165314	      0.31558006	     22.25438217	     -0.15336749	     -4.37032225	     -3.05262286	      5.35981843	    -13.96819810	     -0.52235227	    -26.84280491	      1.48289303	      7.43422894	     -1.54465267	     13.15113400	     -8.25670320	      0.14700548	     -5.71563010	      1.88130578	     -2.76240356
      0.57116667	      5.09555204	      0.68805979	      6.65988108	     -0.75855330	      0.97056091	      0.31574003	     22.40249095	      0.03221073	     -4.36640394	     -3.51998682	      5.25068278	    -14.51250979	     -0.82923186	    -27.10256461	      1.22482545	      7.10414873	     -1.76293138	     13.34676719	     -7.72182430	      0.09971885	     -5.65523904	      2.10566595	     -2.87274041
      0.57533333	      5.00712606	      0.55249179	      6.73746591	     -0.75228218	      0.96938497	      0.31589027	     22.69439015	      0.16840105	     -4.40563887	     -4.14507261	      5.11770708	    -14.92972823	     -1.09107728	    -27.26687965	      1.02188747	      6.89163314	     -1.99116696	     13.41479594	     -7.45536761	      0.07818887	     -5.49553988	      2.28256779	     -2.94037172
      0.57950000	      4.96938603	      0.39541618	      6.82161234	     -0.74595703	      0.96831062	      0.31602307	     22.93862438	      0.32350212	     -4.52841977	     -4.83292831	      4.94772980	    -15.22963069	     -1.18389808	    -27.49994694	      0.78881956	      6.73586966	     -2.18798550	     13.35507837	     -7.33251755	      0.07593305	     -5.40535116	      2.49991237	     -2.98574913
      0.58366667	      4.87776414	      0.23590304	      6.86902314	     -0.73958678	      0.96716812	      0.31624612	     23.23826722	      0.50117677	     -4.49010181	     -5.55833028	      4.71540082	    -15.78687234	     -1.39712543	    -27.62811987	      0.57069748	      6.42026675	     -2.48714799	     13.51367807	     -6.85498954	      0.10090948	     -5.22698476	      2.68710643	     -3.10747316
      0.58783333	      4.81259198	      0.07318372	      6.90956324	     -0.73318231	      0.96610728	      0.31646886	     23.50991438	      0.68550940	     -4.47703849	     -6.32299810	      4.40836375	    -16.31072106	     -1.63822767	    -27.77179428	      0.35363520	      6.11867585	     -2.81215403	     13.54715727	     -6.53653766	      0.15165822	     -5.09271526	      2.89932253	     -3.14950584
      0.59200000	      4.73735973	     -0.09847376	      6.94593353	     -0.72672297	      0.96506413	      0.31669618	     23.80231427	      0.87710313	     -4.48298197	     -7.14619004	      4.08242648	    -16.79745641	     -1.84300078	    -27.90732236	      0.13082508	      5.86618864	     -3.13032897	     13.54765442	     -6.26422628	      0.22543167	     -4.93985313	      3.11722229	     -3.20411129
      0.59616667	      4.65651738	     -0.27903541	      6.97037584	     -0.72020893	      0.96404948	      0.31694821	     24.10061329	      1.08292307	     -4.48954776	     -8.00111513	      3.70612971	    -17.30633446	     -2.02885079	    -28.02621390	     -0.09551958	      5.59500639	     -3.47371342	     13.53512668	     -5.98065702	      0.32347751	     -4.76808714	      3.34399284	     -3.24459643
      0.60033333	      4.57352111	     -0.46264967	      6.98474093	     -0.71365063	      0.96307689	      0.31721551	     24.39939590	      1.29614695	     -4.48759167	     -8.87928375	      3.28351088	    -17.81844747	     -2.19004099	    -28.13080907	     -0.31903668	      5.33446879	     -3.83714765	     13.48102905	     -5.72364853	      0.44346739	     -4.58938029	      3.57764657	     -3.27549514
      0.60450000	      4.48351365	     -0.65382179	      6.99034999	     -0.70704906	      0.96213839	      0.31750656	     24.70296004	      1.52149506	     -4.48244468	     -9.77554375	      2.82575479	    -18.32739078	     -2.33751758	    -28.21307425	     -0.54573884	      5.06106324	     -4.23172041	     13.40789980	     -5.47175611	      0.59043489	     -4.40595187	      3.81548886	     -3.30019404
      0.60866667	      4.38255904	     -0.84764940	      6.98453619	     -0.70039008	      0.96123205	      0.31780885	     25.01806239	      1.75068526	     -4.48934253	    -10.69338918	      2.31758339	    -18.79571299	     -2.44996096	    -28.27933068	     -0.76664442	      4.82233469	     -4.63607793	     13.30110956	     -5.25677545	      0.73488579	     -4.18747754	      4.06127829	     -3.31331799
      0.61283333	      4.30966512	     -1.04899776	      6.96911015	     -0.69372135	      0.96041549	      0.31815544	     25.29175871	      2.00375547	     -4.45372992	    -11.60787019	      1.84116149	    -19.36529757	     -2.59657325	    -28.33092621	     -0.99678456	      4.49514452	     -5.12461499	     13.15590107	     -4.99009896	      0.97984987	     -4.02650609	      4.30922636	     -3.32388449
      0.61700000	      4.20905575	     -1.24866267	      6.94408132	     -0.68701338	      0.95962383	      0.31850667	     25.59573571	      2.25089132	     -4.43741823	    -12.53795816	      1.31697953	    -19.82020362	     -2.72645364	    -28.35114033	     -1.21448688	      4.23643605	     -5.61203096	     12.98178772	     -4.80623278	      1.24225578	     -3.82105703	      4.55666078	     -3.32050544
      0.62116667	      4.12911700	     -1.46289492	      6.90644487	     -0.68026040	      0.95890759	      0.31888865	     25.86778723	      2.52445891	     -4.41049358	    -13.46472365	      0.81173949	    -20.31352863	     -2.88138966	    -28.37890322	     -1.44556538	      3.93583311	     -6.12961301	     12.76134205	     -4.58737053	      1.62123567	     -3.63075993	      4.82192740	     -3.31141308
      0.62533333	      4.11532207	     -1.66491314	      6.85559409	     -0.67348224	      0.95833078	      0.31923881	     26.08551544	      2.77650848	     -4.48734292	    -14.44333188	      0.37914831	    -20.44335799	     -2.90323333	    -28.50147721	     -1.65247762	      3.75749199	     -6.59392076	     12.43488547	     -4.64589492	      1.65675153	     -3.52393489	      5.09093046	     -3.32267937
      0.62950000	      3.99248073	     -1.91194908	      6.79229065	     -0.66666052	      0.95771117	      0.31972695	     26.35007337	      3.11572020	     -4.31988675	    -15.27370950	     -0.21812104	    -21.10525717	     -3.12385140	    -28.39983273	     -1.91094209	      3.32578756	     -7.25606210	     12.17689381	     -4.26151127	      2.39756138	     -3.26865167	      5.39792234	     -3.27616397
      0.63366667	      3.92552137	     -2.09860843	      6.75512321	     -0.65984704	      0.95723253	      0.32009119	     26.60283697	      3.34171472	     -4.40286796	    -16.24027049	     -0.64188898	    -21.22870985	     -3.16107574	    -28.39452858	     -2.10486308	      3.18020048	     -7.83737292	     11.73363512	     -4.29725117	      2.50240944	     -3.08151319	      5.64404965	     -3.25839319
